<svg width="116" height="33" viewBox="0 0 116 33" fill="none" xmlns="http://www.w3.org/2000/svg">
<path d="M12.3938 0.00012207C11.9171 0.00012207 11.5284 0.375837 11.5284 0.839262V9.03866C11.5284 9.5009 11.9159 9.8778 12.3938 9.8778H16.5482C18.2447 9.8778 19.8606 10.5202 21.0987 11.6853C22.3442 12.8586 23.0397 14.4077 23.0592 16.0493C23.0788 17.7311 22.4176 19.3146 21.199 20.5093C19.9804 21.704 18.3547 22.3618 16.6216 22.3618H16.5482C14.8554 22.3428 13.2579 21.6684 12.0479 20.4607C10.8464 19.2612 10.1839 17.6932 10.1839 16.0481V12.0195C10.1839 11.5573 9.79645 11.1804 9.31855 11.1804H0.865363C0.38868 11.1804 0 11.5561 0 12.0195V20.2189C0 20.6811 0.387458 21.058 0.865363 21.058H7.53771C8.43485 21.058 9.01298 21.0699 9.48966 21.1327C10.1228 21.2157 10.5469 21.3911 10.8672 21.7004C11.1874 22.0098 11.3671 22.4222 11.4526 23.0362C11.5174 23.4996 11.5296 24.059 11.5296 24.9302V31.3991C11.5296 31.8614 11.9171 32.2383 12.395 32.2383H16.6228C18.521 32.2383 20.3849 31.9289 22.1633 31.3197C28.7917 29.0477 33.2456 22.939 33.2456 16.1192C33.2456 9.29941 28.7917 3.19075 22.1633 0.918673C20.3849 0.309465 18.521 0.00012207 16.6228 0.00012207H12.395H12.3938Z" fill="#F27A67"/>
<path d="M112.135 11.373C113.391 11.373 114.347 11.766 115.004 12.5519C115.668 13.3298 116 14.3952 116 15.7483V24.3166H112.986V16.4532C112.986 14.8085 112.346 13.9861 111.066 13.9861C110.329 13.9861 109.717 14.3264 109.231 15.007C108.745 15.6876 108.502 16.5667 108.502 17.6443V24.3166H105.5V16.4532C105.5 15.6511 105.338 15.0394 105.013 14.618C104.689 14.1967 104.211 13.9861 103.579 13.9861C102.842 13.9861 102.23 14.3264 101.744 15.007C101.258 15.6876 101.015 16.5586 101.015 17.62V24.3166H97.9766V11.6283H100.966V13.9374H101.039C101.266 13.2325 101.691 12.6289 102.315 12.1266C102.947 11.6242 103.733 11.373 104.673 11.373C105.629 11.373 106.407 11.604 107.007 12.0658C107.614 12.5276 108.032 13.1839 108.258 14.0347H108.331C108.591 13.2731 109.044 12.6411 109.693 12.1387C110.341 11.6283 111.155 11.373 112.135 11.373Z" fill="#443A5B"/>
<path d="M85.2031 20.2356V11.6309H88.2172V19.5428C88.2172 21.1633 88.8775 21.9735 90.1982 21.9735C90.9761 21.9735 91.6202 21.6251 92.1306 20.9283C92.6411 20.2315 92.8963 19.3362 92.8963 18.2424V11.6309H95.9226V24.3192H92.9449V21.9492H92.872C92.5803 22.7108 92.1388 23.3388 91.5473 23.833C90.9558 24.3192 90.2104 24.5622 89.311 24.5622C86.5724 24.5622 85.2031 23.12 85.2031 20.2356Z" fill="#443A5B"/>
<path d="M77.2588 20.659V14.1083H75.5938V11.7505H76.2136C76.7159 11.7505 77.0481 11.6411 77.2102 11.4223C77.3803 11.2036 77.4654 10.7579 77.4654 10.0854V7.64258H80.2729V11.6289H83.4328V14.1083H80.2729V20.1364C80.2729 20.8413 80.3944 21.3356 80.6375 21.6192C80.8805 21.8946 81.2816 22.0324 81.8407 22.0324C82.3835 22.0324 82.9142 21.9068 83.4328 21.6556V24.1471C82.7198 24.4469 81.9339 24.5968 81.075 24.5968C79.7219 24.5968 78.7456 24.2929 78.146 23.6853C77.5545 23.0695 77.2588 22.0607 77.2588 20.659Z" fill="#443A5B"/>
<path d="M61.8516 18.0697C61.8516 16.0117 62.3539 14.3831 63.3586 13.1839C64.3633 11.9767 65.6961 11.373 67.3571 11.373C68.3213 11.373 69.0991 11.5878 69.6906 12.0172C70.2821 12.4385 70.6791 12.9206 70.8816 13.4635H70.9667V11.6283H73.92V24.3166H70.9667V22.0317H70.8816C70.7115 22.7123 70.2983 23.3038 69.642 23.8061C68.9857 24.3085 68.1309 24.5597 67.0776 24.5597C66.3403 24.5597 65.6556 24.4179 65.0236 24.1343C64.3917 23.8507 63.8366 23.4415 63.3586 22.9068C62.8887 22.372 62.52 21.6914 62.2526 20.865C61.9853 20.0304 61.8516 19.0987 61.8516 18.0697ZM70.906 18.1426V17.5227C70.906 16.3722 70.6305 15.4647 70.0795 14.8003C69.5367 14.1279 68.852 13.7916 68.0256 13.7916C67.0776 13.7916 66.32 14.1684 65.7529 14.9219C65.1938 15.6754 64.9143 16.6923 64.9143 17.9724C64.9143 19.285 65.1897 20.3059 65.7407 21.0351C66.2917 21.7643 67.0128 22.1289 67.904 22.1289C68.7791 22.1289 69.4961 21.7765 70.0552 21.0716C70.6224 20.3667 70.906 19.3903 70.906 18.1426Z" fill="#443A5B"/>
<path d="M46.3438 7.64258H52.4934C53.5143 7.64258 54.4542 7.78032 55.3131 8.0558C56.18 8.33128 56.9254 8.71614 57.5493 9.21039C58.1813 9.70463 58.7161 10.2921 59.1536 10.9727C59.5992 11.6532 59.9314 12.4027 60.1502 13.2211C60.3689 14.0394 60.4783 14.9104 60.4783 15.8341C60.4783 17.0332 60.296 18.1473 59.9314 19.1763C59.5749 20.1972 59.0604 21.0925 58.3879 21.8622C57.7154 22.6239 56.8606 23.2234 55.8235 23.661C54.7864 24.0985 53.6237 24.3172 52.3354 24.3172H46.3438V7.64258ZM52.1653 21.607C53.0242 21.607 53.7817 21.4652 54.438 21.1816C55.1024 20.898 55.6412 20.501 56.0544 19.9906C56.4677 19.472 56.7755 18.8684 56.9781 18.1797C57.1888 17.491 57.2941 16.7253 57.2941 15.8827C57.2941 15.0887 57.1928 14.3635 56.9903 13.7072C56.7877 13.0428 56.4839 12.4594 56.0787 11.9571C55.6736 11.4466 55.1389 11.0537 54.4745 10.7782C53.8101 10.4946 53.0404 10.3528 52.1653 10.3528H49.4551V21.607H52.1653Z" fill="#443A5B"/>
</svg>
